<?xml version="1.0" standalone="no"?>
<!DOCTYPE svg PUBLIC "-//W3C//DTD SVG 1.1//EN" "http://www.w3.org/Graphics/SVG/1.1/DTD/svg11.dtd" >
<svg xmlns="http://www.w3.org/2000/svg">
<metadata></metadata>
<defs>
<font id="sansus_webissimoregular" horiz-adv-x="1167" >
<font-face units-per-em="2048" ascent="1536" descent="-512" />
<missing-glyph horiz-adv-x="430" />
<glyph horiz-adv-x="2048" />
<glyph horiz-adv-x="2048" />
<glyph unicode="&#xd;" horiz-adv-x="2048" />
<glyph unicode=" "  horiz-adv-x="430" />
<glyph unicode="&#x09;" horiz-adv-x="430" />
<glyph unicode="&#xa0;" horiz-adv-x="430" />
<glyph unicode="!" horiz-adv-x="577" d="M135 152q0 75 44.5 123.5t109.5 48.5t109 -48t44 -124t-44 -124t-109 -48t-109.5 48.5t-44.5 123.5zM135 1450h309l-34 -907h-240z" />
<glyph unicode="&#x22;" horiz-adv-x="749" d="M78 1446h227l-29 -496h-170zM426 1446h227l-28 -496h-172z" />
<glyph unicode="#" horiz-adv-x="1011" d="M23 379l24 194h148l43 228h-166l24 192h178l56 299l202 -18l-53 -281h166l53 289l203 -20q-9 -45 -25.5 -134.5t-25.5 -134.5h139q-17 -143 -22 -192h-154l-43 -228h170l-25 -194h-180l-61 -326q-111 13 -201 21l55 305h-166l-59 -313q-124 11 -201 20l56 293h-135z M399 573h166l43 228h-168q-6 -38 -20.5 -114t-20.5 -114z" />
<glyph unicode="$" horiz-adv-x="888" d="M53 139l49 201q5 -2 37.5 -12t55 -16.5t56.5 -15t65.5 -13t58.5 -4.5q67 0 103 31t36 83q0 40 -32.5 78.5t-80.5 69t-105 71t-105 81.5t-80.5 104t-32.5 135q0 125 70.5 209t197.5 112l-4 209h209q-4 -132 -4 -196q30 -2 59 -6t56 -9.5t44 -9t41 -9.5t29 -7l-22 -213 q-126 41 -232 41q-67 0 -109 -28t-42 -77q0 -35 25 -67.5t64.5 -60.5t87.5 -57t96 -63.5t87.5 -73.5t64.5 -94t25 -118q0 -132 -68.5 -220t-205.5 -116l4 -201h-209l4 186q-53 3 -106 14.5t-82 21.5t-64.5 24t-40.5 16z" />
<glyph unicode="%" horiz-adv-x="1359" d="M68 1042q0 347 266 347t266 -347q0 -178 -65.5 -264t-200.5 -86q-136 0 -201 85.5t-65 264.5zM240 1042q0 -103 22 -154.5t72 -51.5q51 0 73.5 51.5t22.5 154.5q0 203 -96 203q-94 0 -94 -203zM242 -10l661 1372h223l-659 -1372h-225zM768 309q0 346 266 346 q269 0 269 -346q0 -178 -66.5 -264t-202.5 -86t-201 85.5t-65 264.5zM940 309q0 -103 22 -154t72 -51q51 0 73.5 51t22.5 154q0 203 -96 203q-94 0 -94 -203z" />
<glyph unicode="&#x26;" horiz-adv-x="1308" d="M47 393q0 133 67 229t185 154q-67 70 -103 140.5t-36 158.5q0 153 99.5 234.5t275.5 81.5q170 0 269 -76t99 -219q0 -238 -256 -379l219 -248q25 34 44.5 97.5t21.5 109.5h270q-8 -112 -54.5 -222t-103.5 -175l252 -279h-366l-86 98q-72 -61 -156.5 -91t-204.5 -30 q-93 0 -170.5 25t-137.5 74.5t-94 130.5t-34 186zM352 414q0 -95 46.5 -156t123.5 -61q46 0 89 20t65 57l-217 330q-53 -26 -80 -76t-27 -114zM451 1071q0 -36 1 -52t11.5 -44t32.5 -53l28 -33q42 30 73.5 76t31.5 100q0 46 -23 80.5t-74 34.5q-81 0 -81 -109z" />
<glyph unicode="'" horiz-adv-x="403" d="M78 1446h227l-29 -496h-170z" />
<glyph unicode="(" horiz-adv-x="667" d="M104 573q0 179 29 336t80 274t109.5 202.5t128.5 148.5l176 -125q-38 -41 -77.5 -115.5t-77 -179t-61.5 -247.5t-24 -294t24 -293t61.5 -246t77 -177.5t77.5 -114.5l-178 -127q-69 63 -127 148t-109 201.5t-80 273t-29 335.5z" />
<glyph unicode=")" horiz-adv-x="667" d="M39 -258q38 41 78 115.5t78 179t62 247.5t24 294t-24 293t-62 246t-78 177t-78 115l178 125q69 -64 127.5 -148t109.5 -200.5t80 -272.5t29 -335t-29 -336.5t-80 -274.5t-109.5 -202.5t-127.5 -147.5z" />
<glyph unicode="*" horiz-adv-x="837" d="M39 1026l65 199l234 -107l-27 268h215l-30 -268l239 107q36 -118 64 -199l-252 -51l184 -201l-174 -125l-137 234l-139 -234q-136 97 -172 125l182 199q-42 8 -252 53z" />
<glyph unicode="+" horiz-adv-x="962" d="M80 514v217h287v318h229v-318h287v-217h-287v-319h-229v319h-287z" />
<glyph unicode="," horiz-adv-x="477" d="M49 -246q84 151 84 228q0 24 -11 76t-11 87v11q0 65 37 108t83 43q146 0 146 -180q-5 -93 -60.5 -201t-142.5 -235z" />
<glyph unicode="-" horiz-adv-x="653" d="M74 463v221h506v-221h-506z" />
<glyph unicode="." horiz-adv-x="509" d="M100 152q0 75 44.5 123.5t109.5 48.5t109.5 -48.5t44.5 -123.5t-44.5 -123.5t-109.5 -48.5t-109.5 48.5t-44.5 123.5z" />
<glyph unicode="/" horiz-adv-x="800" d="M2 -276q160 534 324.5 1042.5t236.5 703.5h246q-73 -201 -237 -710.5t-322 -1035.5h-248z" />
<glyph unicode="0" horiz-adv-x="1048" d="M63 672q0 365 116 532.5t343 167.5q228 0 344.5 -168t116.5 -532t-116.5 -531.5t-344.5 -167.5q-227 0 -343 167t-116 532zM346 672q0 -247 39.5 -367.5t136.5 -120.5q99 0 139.5 120t40.5 368q0 163 -16 267.5t-56.5 163t-107.5 58.5q-96 0 -136 -121.5t-40 -367.5z" />
<glyph unicode="1" horiz-adv-x="737" d="M-10 1059q251 202 379 289h252v-1348h-283v1063q-176 -141 -225 -178z" />
<glyph unicode="2" horiz-adv-x="878" d="M33 0v199q9 10 48.5 52t69 73.5t77 87.5t83 102t75.5 106.5t66 112.5t43 109t17 106q0 201 -178 201q-66 0 -134.5 -18.5t-107.5 -36.5q-15 59 -45 194q164 84 350 84q199 0 302.5 -93.5t103.5 -270.5q0 -90 -29 -183.5t-70.5 -169.5t-107 -160.5t-119 -142.5 t-125.5 -129q44 1 135.5 5t172.5 6t159 2v-236h-786z" />
<glyph unicode="3" horiz-adv-x="954" d="M16 80l76 196q3 -1 25.5 -11t47 -19.5t57.5 -19.5t71.5 -16.5t75.5 -6.5q223 0 223 203q0 174 -217 174q-35 0 -88.5 -1t-61.5 -1v206h70q107 0 162 23q29 11 63.5 60.5t34.5 121.5q0 156 -197 156q-50 0 -107 -11.5t-85.5 -20.5t-42.5 -15l-49 209q172 65 346 65 q203 0 316.5 -87t113.5 -251q0 -214 -195 -319q111 -29 173.5 -109t62.5 -213q0 -214 -129 -317t-352 -103q-76 0 -149 15.5t-116 33t-83 37t-46 21.5z" />
<glyph unicode="4" horiz-adv-x="1050" d="M57 350v185l359 813h291l-330 -768h227v235l283 41v-276h106v-230h-106v-350h-283v350h-547z" />
<glyph unicode="5" horiz-adv-x="935" d="M41 88l74 180q46 -25 129 -50t153 -25q92 0 139.5 60t47.5 173q0 106 -51 162.5t-146 56.5q-53 0 -106 -14.5t-76 -28.5q-59 19 -76 23l55 723h631v-226h-418l-20 -295q51 23 108 23q177 0 281 -109.5t104 -318.5q0 -117 -34 -204t-96.5 -139.5t-145 -78t-184.5 -25.5 q-76 0 -145 15.5t-102.5 31t-76 40t-45.5 26.5z" />
<glyph unicode="6" horiz-adv-x="983" d="M61 510q0 141 33 263.5t89.5 215t136.5 170t168 131t192 94.5l84 -196q-267 -116 -363 -367q102 39 183 39q156 0 251 -112t95 -287q0 -233 -122.5 -359.5t-313.5 -126.5q-92 0 -169 31t-137 94t-93.5 168t-33.5 242zM344 434q5 -116 46.5 -185t111.5 -69q72 0 110.5 69 t38.5 197q0 111 -39.5 170.5t-107.5 59.5q-89 0 -146 -64q-14 -71 -14 -178z" />
<glyph unicode="7" horiz-adv-x="856" d="M27 1114v234h794v-172q-184 -437 -436 -1176h-299q66 194 249 647t193 483z" />
<glyph unicode="8" horiz-adv-x="995" d="M57 393q0 133 62.5 213t173.5 109q-195 105 -195 319q0 162 111.5 250t298.5 88q185 0 287 -87t102 -251q0 -214 -195 -319q111 -29 173.5 -109t62.5 -213q0 -109 -32 -190.5t-91.5 -131t-138.5 -74t-178 -24.5t-178 24.5t-138.5 74t-92 131t-32.5 190.5zM356 385 q0 -98 37.5 -149.5t104.5 -51.5q66 0 103.5 51.5t37.5 149.5q0 92 -48 142.5t-134 50.5q-49 0 -75 -50t-26 -143zM393 980.5q0 -6.5 1 -30.5t3.5 -33.5t7 -30t11.5 -30.5t18.5 -24.5t25.5 -21t34.5 -12t44.5 -5.5q15 0 26.5 9t18 28t10.5 36.5t5.5 47.5t2 47t0.5 49 q0 70 -27.5 110.5t-76.5 40.5q-50 0 -77.5 -40.5t-27.5 -110.5v-29.5z" />
<glyph unicode="9" horiz-adv-x="983" d="M53 887q0 231 121.5 358t312.5 127q92 0 169 -31.5t137 -94.5t93.5 -167t33.5 -241q0 -141 -33 -264.5t-89 -216.5t-136 -170.5t-168.5 -131t-192.5 -94.5l-84 197q266 110 363 366q-98 -39 -177 -39q-159 0 -254.5 110.5t-95.5 291.5zM330 899q0 -114 39.5 -171.5 t107.5 -57.5q92 0 144 65q16 78 16 183q-5 117 -46.5 182t-111.5 65q-72 0 -110.5 -69t-38.5 -197z" />
<glyph unicode=":" horiz-adv-x="509" d="M102 190q0 74 44 123t108 49q65 0 108.5 -48.5t43.5 -123.5t-43.5 -122.5t-108.5 -47.5q-64 0 -108 47.5t-44 122.5zM102 821q0 75 44 123.5t108 48.5q65 0 108.5 -48t43.5 -124q0 -75 -43.5 -122.5t-108.5 -47.5q-64 0 -108 47.5t-44 122.5z" />
<glyph unicode=";" horiz-adv-x="509" d="M66 -246q84 151 84 228q0 24 -11.5 76t-11.5 87v11q0 64 37.5 107.5t83.5 43.5q145 0 145 -180q-5 -93 -60.5 -201t-142.5 -235q-76 41 -124 63zM102 821q0 75 44 123.5t108 48.5q65 0 108.5 -48t43.5 -124q0 -75 -43.5 -122.5t-108.5 -47.5q-64 0 -108 47.5t-44 122.5z " />
<glyph unicode="&#x3c;" horiz-adv-x="903" d="M96 629v94l664 405v-215l-369 -237l369 -242v-211z" />
<glyph unicode="=" horiz-adv-x="976" d="M86 311v213h803v-213h-803zM86 719v213h803v-213h-803z" />
<glyph unicode="&#x3e;" horiz-adv-x="903" d="M143 223v211l369 242l-369 237v215l664 -405v-94z" />
<glyph unicode="?" horiz-adv-x="770" d="M12 1384q2 1 17.5 9.5t27.5 14.5t34.5 15.5t46 16.5t53.5 14t66 10.5t75 3.5q172 0 280.5 -87t108.5 -261q0 -72 -17.5 -130.5t-45.5 -98.5t-62 -74.5t-68 -66t-62 -65t-45.5 -79.5t-17.5 -102q-25 0 -110.5 -8.5t-108.5 -8.5q-4 32 -4 48q0 82 26 148.5t62.5 111t73 86 t62.5 93.5t26 113q0 76 -40 110t-124 34q-60 0 -121 -18.5t-82 -32.5zM143 150q0 75 44 123.5t108 48.5q65 0 108 -48t43 -124q0 -75 -42.5 -121.5t-108.5 -46.5q-64 0 -108 46.5t-44 121.5z" />
<glyph unicode="@" horiz-adv-x="1632" d="M94 418q0 273 92 477t264.5 314t403.5 110q321 0 505.5 -208.5t184.5 -582.5q0 -135 -25.5 -239t-64 -163.5t-89.5 -97.5t-95 -50.5t-88 -12.5q-72 0 -131.5 37t-81.5 107q-92 -144 -224 -144q-54 0 -103 25t-90 75.5t-65 138.5t-24 202q0 115 24.5 206t65.5 146.5 t91.5 84.5t105.5 29q29 0 61 -8t48.5 -14t52 -23.5t40.5 -19.5l9 72l174 -25v-596q0 -131 67 -131q62 0 97.5 98t35.5 269q0 310 -121.5 474.5t-361.5 164.5q-254 0 -400.5 -181.5t-146.5 -527.5q0 -331 140 -509.5t405 -178.5q62 0 199 20l36 -176q-4 -1 -33.5 -6t-50 -8.5 t-53 -8t-66.5 -6.5t-67 -2q-170 0 -306 62.5t-227 176.5t-139.5 274.5t-48.5 355.5zM680 420q0 -136 31.5 -207.5t91.5 -71.5q71 0 129 103v411q-50 42 -78 53q-20 7 -39 7q-68 0 -101.5 -78.5t-33.5 -216.5z" />
<glyph unicode="A" horiz-adv-x="1132" d="M23 0l374 1348h344l369 -1348h-301l-61 233h-377l-62 -233h-286zM414 430h291q-18 80 -51.5 229.5t-57 256.5t-35.5 171q-18 -89 -147 -657z" />
<glyph unicode="B" horiz-adv-x="1048" d="M127 0v1348q26 0 147.5 6t196.5 6q248 0 358.5 -78.5t110.5 -267.5q0 -108 -46 -189t-114 -123q97 -33 152 -105.5t55 -207.5q0 -205 -122 -304t-382 -99q-81 0 -205.5 7t-150.5 7zM399 197q10 0 33 -1t33 -1q124 0 182 47.5t58 163.5q0 93 -57.5 139.5t-166.5 46.5 q-42 0 -82 -4v-391zM399 758q10 0 33 -1t33 -1q111 0 159 60q45 56 44 138v11q-3 99 -43.5 143.5t-143.5 44.5q-42 0 -82 -4v-391z" />
<glyph unicode="C" horiz-adv-x="976" d="M68 672q0 702 548 702q59 0 117 -9t90 -19t68 -22l39 -13q-22 -114 -39 -215q-124 51 -225 51q-169 0 -235 -113t-66 -362t66 -362t235 -113q101 0 225 51q17 -101 39 -215q-4 -1 -39.5 -13.5t-68 -22.5t-90 -19t-116.5 -9q-548 0 -548 703z" />
<glyph unicode="D" horiz-adv-x="1138" d="M127 0v1348q21 0 142.5 6t213.5 6q119 0 206.5 -18t162.5 -64.5t121.5 -123.5t72 -197.5t25.5 -284.5q0 -162 -25.5 -280.5t-72 -196.5t-120.5 -124.5t-162.5 -65.5t-207.5 -19q-91 0 -212.5 7t-143.5 7zM412 211q29 -2 98 -2q139 0 203.5 114.5t64.5 348.5 q0 241 -64 353t-206 112q-30 0 -96 -4v-922z" />
<glyph unicode="E" horiz-adv-x="921" d="M127 0v1348h729v-232h-442v-311h336v-217h-336v-357h442v-231h-729z" />
<glyph unicode="F" horiz-adv-x="868" d="M127 0v1348h704v-232h-417v-368h348v-218h-348v-530h-287z" />
<glyph unicode="G" horiz-adv-x="1064" d="M68 672q0 702 548 702q40 0 83 -4t75.5 -10t68 -14t55.5 -14t43 -13t26 -8q-22 -114 -39 -215q-39 16 -118 33.5t-144 17.5q-169 0 -235 -113t-66 -362t66 -362t235 -113q37 0 57 2v358h-141v227h426v-751q-4 -1 -29 -8t-48 -13t-62 -14.5t-76 -14.5t-84.5 -10t-92.5 -4 q-548 0 -548 703z" />
<glyph unicode="H" horiz-adv-x="1189" d="M127 0v1348h285v-564h366v564h283v-1348h-283v557h-366v-557h-285z" />
<glyph unicode="I" horiz-adv-x="540" d="M127 0v1348h285v-1348h-285z" />
<glyph unicode="J" horiz-adv-x="555" d="M-43 -338q3 35 7 105.5t7 105.5q64 6 105 68q40 30 57 88t17 174v1145h282v-1082q0 -150 -17.5 -257.5t-49 -175t-84 -107t-113 -54t-145.5 -14.5q-20 0 -66 4z" />
<glyph unicode="K" horiz-adv-x="1103" d="M127 0v1348h285v-590l329 590h318l-381 -611q69 -123 210.5 -368.5t211.5 -368.5h-338l-350 657v-657h-285z" />
<glyph unicode="L" horiz-adv-x="843" d="M127 0v1348h285v-1117h399l-18 -231h-666z" />
<glyph unicode="M" horiz-adv-x="1417" d="M51 0l129 1348h277q30 -82 125 -404t127 -446q29 113 127 436.5t129 413.5h278l123 -1348h-287q-46 624 -59 858q-31 -112 -113.5 -392.5t-105.5 -350.5h-195q-31 94 -114 371t-107 372l-57 -858h-277z" />
<glyph unicode="N" horiz-adv-x="1183" d="M127 0v1348h256q107 -210 426 -846h4q0 10 -3 63.5t-3 85.5v697h250v-1348h-254l-430 850h-2q0 -9 3 -63t3 -89v-698h-250z" />
<glyph unicode="O" d="M68 674q0 352 131 525t383 173q516 0 516 -698q0 -353 -131.5 -527t-384.5 -174q-251 0 -382.5 174t-131.5 527zM360 674q0 -473 222 -473q225 0 225 473q0 471 -225 471q-222 0 -222 -471z" />
<glyph unicode="P" horiz-adv-x="1015" d="M127 0v1348q29 0 154 6t198 6q257 0 371.5 -114t114.5 -347q0 -124 -35.5 -214.5t-100 -143t-146.5 -77t-183 -24.5q-39 0 -97 4v-444h-276zM403 653h76q95 0 147 57.5t52 188.5q0 122 -49 183t-140 61q-55 0 -86 -2v-488z" />
<glyph unicode="Q" d="M68 674q0 352 131 525t383 173q516 0 516 -698q0 -480 -246 -631q81 -73 223 -137l-125 -189q-23 6 -54 19t-84 40.5t-114.5 79t-115.5 117.5q-251 0 -382.5 174t-131.5 527zM360 674q0 -473 222 -473q225 0 225 473q0 471 -225 471q-222 0 -222 -471z" />
<glyph unicode="R" horiz-adv-x="1058" d="M127 0v1348q26 0 154.5 6t207.5 6q253 0 372.5 -101t119.5 -335q0 -153 -63.5 -246t-161.5 -129l262 -549h-301l-215 512q-30 0 -66.5 2t-38.5 2v-516h-270zM397 723q8 0 53 -3t74 -3q83 0 126.5 53t43.5 158q0 109 -44 162t-140 53q-31 0 -113 -4v-416z" />
<glyph unicode="S" horiz-adv-x="917" d="M47 74l66 207q6 -2 56.5 -25.5t104.5 -40t103 -16.5q81 0 141 39.5t60 113.5q0 46 -28 85t-73 70t-99 63t-108 70t-99 83.5t-73 112t-28 147.5q0 181 114.5 285t317.5 104q71 0 137.5 -12t102 -25t75 -31t45.5 -20l-65 -207q-6 2 -57 25.5t-105 40t-103 16.5 q-58 0 -99.5 -26t-58 -58.5t-16.5 -64.5q0 -50 28 -92.5t73 -75t99 -65t108 -70t99 -80.5t73 -107t28 -141q0 -193 -114 -299.5t-334 -106.5q-71 0 -138.5 14t-106 30t-78.5 35t-48 22z" />
<glyph unicode="T" horiz-adv-x="903" d="M31 1116v232h841l-2 -232h-276v-1116h-285v1116h-278z" />
<glyph unicode="U" horiz-adv-x="1134" d="M111 633v715h284v-715q0 -84 2 -137t7.5 -107t17 -85t30.5 -56.5t47.5 -36t67.5 -10.5q40 0 68 10t47 36.5t30 56.5t16.5 85.5t7 106.5t1.5 137v715h281v-715q0 -360 -101.5 -510t-349.5 -150q-247 0 -351.5 151t-104.5 509z" />
<glyph unicode="V" horiz-adv-x="1083" d="M25 1348h292l205 -928l25 -203l24 203l205 928h293l-377 -1348h-291z" />
<glyph unicode="W" horiz-adv-x="1513" d="M20 1348h287l166 -912l176 805h221l177 -805l167 912h277l-281 -1348h-268l-184 858l-193 -858h-264z" />
<glyph unicode="X" horiz-adv-x="1101" d="M6 0l379 678l-362 670h327q4 -9 92.5 -210.5t108.5 -254.5q15 41 56 134t93.5 209t55.5 122h323l-362 -672q219 -387 379 -676h-336q-3 7 -57 123.5t-95 210t-57 139.5q-43 -111 -215 -473h-330z" />
<glyph unicode="Y" horiz-adv-x="1081" d="M-4 1348h305q188 -500 240 -648q66 189 239 648h305q-54 -119 -176.5 -396.5t-189.5 -425.5l-35 -82v-444h-285v444l-37 82q-67 148 -189.5 425.5t-176.5 396.5z" />
<glyph unicode="Z" horiz-adv-x="952" d="M57 0v184l504 934h-489v230h807v-185q-211 -395 -502 -934h510v-229h-830z" />
<glyph unicode="[" horiz-adv-x="636" d="M160 -295v1854h456v-189h-225v-1476h225v-189h-456z" />
<glyph unicode="\" horiz-adv-x="800" d="M-10 1470h248q166 -547 328.5 -1052.5t232.5 -693.5h-248q-72 195 -236.5 703.5t-324.5 1042.5z" />
<glyph unicode="]" horiz-adv-x="636" d="M23 -106h225v1476h-225v186h456v-1851h-456v189z" />
<glyph unicode="^" horiz-adv-x="886" d="M98 1073l310 311h73l310 -311l-117 -121q-194 179 -230 211q-35 -31 -73 -66.5t-84 -78t-72 -66.5z" />
<glyph unicode="_" horiz-adv-x="980" d="M23 -158h935v-204h-935v204z" />
<glyph unicode="`" horiz-adv-x="735" d="M104 1477l154 149l285 -342l-119 -110z" />
<glyph unicode="a" horiz-adv-x="956" d="M47 293q0 191 120 276.5t370 85.5l47 -4v25q0 62 -12.5 101.5t-38 58.5t-54 25.5t-71.5 6.5q-118 0 -256 -45l-31 189q173 63 334 63q208 0 305.5 -99.5t97.5 -307.5v-668h-254q-7 72 -14 115q-1 -1 -16 -19t-26.5 -30t-35.5 -31t-48 -30.5t-60.5 -20.5t-75.5 -9 q-123 0 -202 80t-79 238zM313 326q0 -150 119 -150q91 0 152 88v232q-38 0 -56 2q-117 0 -166 -38t-49 -134z" />
<glyph unicode="b" horiz-adv-x="1044" d="M100 0v1473l277 40v-581q138 143 278 143q145 0 238.5 -133.5t93.5 -400.5q0 -264 -105 -409.5t-264 -145.5q-49 0 -90.5 12t-75.5 36.5t-51 40.5t-45 46l-22 -121h-234zM377 279q28 -20 43 -29.5t40 -20t46 -10.5q101 0 148.5 70.5t47.5 228.5q0 177 -39 250.5 t-122 73.5q-49 0 -92.5 -31t-71.5 -66v-466z" />
<glyph unicode="c" horiz-adv-x="788" d="M57 510q0 283 113.5 424t331.5 141q132 0 246 -43l-33 -203q-89 33 -174 33q-102 0 -150.5 -82.5t-48.5 -259.5q0 -176 48 -253t142 -77q37 0 75.5 11t75 27.5t38.5 17.5l63 -176q-7 -3 -40.5 -21t-65 -33t-86 -28t-109.5 -13q-208 0 -317 133.5t-109 401.5z" />
<glyph unicode="d" horiz-adv-x="1044" d="M55 504q0 123 23 220.5t62.5 161.5t95 106.5t117 60.5t132.5 18q81 0 183 -45v447l274 40v-1513h-233l-17 123q-56 -62 -134.5 -105t-172.5 -43q-70 0 -128 30.5t-104 92t-72 165.5t-26 241zM342 528q0 -178 39 -249.5t121 -71.5q48 0 92.5 29.5t73.5 68.5v518 q-72 37 -129 37q-102 0 -149.5 -76t-47.5 -256z" />
<glyph unicode="e" horiz-adv-x="935" d="M57 498q0 143 33 254.5t91.5 181t134.5 105.5t165 36q184 0 291 -120.5t107 -368.5q0 -79 -13 -144h-534q1 -130 58.5 -194t150.5 -64q20 0 41 2.5t37.5 5.5t37.5 9t32.5 10t32 12.5t27 11.5t25 11.5t19.5 9.5l55 -180q-157 -101 -361 -101q-92 0 -168 30.5t-135.5 92 t-93 164t-33.5 236.5zM332 614h280q0 147 -35 206t-98 59q-61 0 -103.5 -63.5t-43.5 -201.5z" />
<glyph unicode="f" horiz-adv-x="632" d="M25 850v203h112v123q0 187 66 273.5t207 86.5q23 0 45.5 -1.5t39.5 -3.5t35 -5.5t29.5 -6t25.5 -7t20 -6.5t16.5 -6t11.5 -5q-2 -64 -10 -197q-76 19 -119 19q-53 0 -71.5 -38t-18.5 -142v-84h188v-203h-188v-850h-277v850h-112z" />
<glyph unicode="g" horiz-adv-x="1044" d="M55 489q0 140 29.5 251.5t81 181.5t117 106.5t139.5 36.5q83 0 142.5 -38.5t123.5 -117.5q10 61 21 144h233v-1139q0 -206 -96 -307t-297 -101q-167 0 -342 64l31 188q137 -45 262 -45q40 0 67.5 7t52.5 26t37.5 59t12.5 101v211h-2q-48 -57 -121.5 -99.5t-161.5 -42.5 q-146 0 -238 130.5t-92 383.5zM342 516q0 -166 38.5 -236.5t111.5 -70.5q56 0 102 32.5t74 75.5v418q-55 59 -92 81t-82 22q-91 0 -121.5 -75t-30.5 -247z" />
<glyph unicode="h" horiz-adv-x="1036" d="M100 0v1473l277 40v-595h4q1 1 24 25.5t44 42.5t55 40.5t77.5 35.5t90.5 13q143 0 205.5 -88.5t62.5 -277.5v-709h-276v641q0 114 -23 154.5t-86 40.5q-24 0 -49.5 -10.5t-41.5 -20.5t-39 -32.5t-27 -27.5t-21 -24v-721h-277z" />
<glyph unicode="i" horiz-adv-x="489" d="M92 1374q0 73 45.5 120.5t110.5 47.5t110 -47.5t45 -120.5q0 -72 -45 -119t-110 -47q-66 0 -111 47t-45 119zM106 0v1032l277 41v-1073h-277z" />
<glyph unicode="j" horiz-adv-x="499" d="M-45 -473l12 203q86 9 118 55t32 170v1077l274 41v-1145q0 -219 -82 -316t-250 -97q-38 0 -104 12zM96 1374q0 72 46 120t112 48q64 0 109 -48t45 -120t-45 -119t-109 -47q-66 0 -112 47t-46 119z" />
<glyph unicode="k" horiz-adv-x="974" d="M102 0v1473l275 40v-917l266 457h309l-338 -469l375 -584h-330l-282 502v-502h-275z" />
<glyph unicode="l" horiz-adv-x="477" d="M100 0v1473l277 40v-1513h-277z" />
<glyph unicode="m" horiz-adv-x="1468" d="M106 0v1053h244l12 -142q1 1 19 24t29.5 35.5t37 35.5t49 35.5t58.5 23t72 10.5q93 0 146.5 -37t76.5 -125q21 28 38 47t52 50t81 48t97 17q135 0 194.5 -84t59.5 -280v-711h-274v688q0 76 -17.5 112t-68.5 36q-47 0 -87 -39.5t-55 -75.5v-721h-264v688q0 76 -17.5 112 t-68.5 36q-47 0 -85 -38t-56 -77v-721h-273z" />
<glyph unicode="n" horiz-adv-x="1040" d="M106 0v1053h244l12 -135h5q1 0 20.5 20t34 33t45 35t59 35t69 23.5t81.5 10.5q143 0 205.5 -88.5t62.5 -277.5v-709h-276v641q0 114 -23 154.5t-86 40.5q-24 0 -49.5 -10.5t-41.5 -20.5t-39 -32.5t-27 -27.5t-21 -24v-721h-275z" />
<glyph unicode="o" horiz-adv-x="1017" d="M57 526q0 549 451 549q105 0 186 -30.5t142 -95t93 -171.5t32 -252q0 -286 -119 -418.5t-334 -132.5q-451 0 -451 551zM342 526q0 -184 39.5 -266t126.5 -82t126.5 82t39.5 266q0 183 -39.5 264.5t-126.5 81.5t-126.5 -81.5t-39.5 -264.5z" />
<glyph unicode="p" horiz-adv-x="1044" d="M100 -469v1522h256l13 -140h4q16 24 40 49t59.5 52t83 44t97.5 17q147 0 240.5 -135t93.5 -399q0 -278 -112 -422t-291 -144q-113 0 -209 41v-485h-275zM377 201q59 -27 121 -27q105 0 154.5 80.5t49.5 263.5q0 177 -39 250.5t-122 73.5q-48 0 -94.5 -39t-69.5 -78v-524z " />
<glyph unicode="q" horiz-adv-x="1044" d="M55 506q0 266 106.5 412.5t266.5 146.5h3q128 0 241 -156q5 28 9.5 78.5t6.5 65.5h254v-1522h-272v586h-2q-46 -55 -120 -98.5t-161 -43.5q-149 0 -240.5 131t-91.5 400zM342 530q0 -180 37.5 -250.5t118.5 -70.5q50 0 97.5 34.5t72.5 73.5v418q-94 113 -181 113 q-75 0 -110 -74.5t-35 -243.5z" />
<glyph unicode="r" horiz-adv-x="688" d="M106 0v1053h244l15 -142h2q34 73 96.5 119.5t130.5 46.5q14 0 28.5 -2.5t22 -5t18 -6.5t11.5 -4l-21 -244q-5 1 -28 8t-43.5 11t-38.5 4q-39 0 -74.5 -25t-87.5 -88v-725h-275z" />
<glyph unicode="s" horiz-adv-x="770" d="M37 57l47 185q3 -1 26.5 -11t44 -17.5t49.5 -17t58.5 -15t54.5 -5.5q65 0 95 20.5t30 75.5q0 39 -28 76t-70 66t-91.5 67t-91.5 76t-70 95.5t-28 123.5q0 140 93.5 219.5t261.5 79.5q128 0 268 -43q-12 -138 -16 -201q-141 39 -209 39q-131 0 -131 -82q0 -31 22 -60.5 t57 -55t77.5 -53t84.5 -60t77 -69.5t57 -89t22 -112q0 -140 -89 -227t-273 -87q-36 0 -70.5 3t-65 10t-53 12.5t-48.5 16t-37 15t-32 15t-22 10.5z" />
<glyph unicode="t" horiz-adv-x="677" d="M25 850v203h112v254l275 41v-295h225v-203h-225v-506q0 -70 18 -101.5t62 -31.5q27 0 56 7t50 15.5t23 8.5l26 -197q-6 -2 -33.5 -15.5t-53.5 -24.5t-70.5 -20.5t-90.5 -9.5q-143 0 -202.5 75t-59.5 255v545h-112z" />
<glyph unicode="u" horiz-adv-x="1038" d="M96 342v711h277v-574q0 -159 20 -210.5t92 -51.5q77 0 174 117v719h277v-1053h-240l-16 141l-57 -51l-20 -17q-20 -17 -31 -25.5t-37 -24.5t-48 -24.5t-54.5 -16t-65.5 -7.5q-143 0 -207 89t-64 278z" />
<glyph unicode="v" horiz-adv-x="958" d="M18 1053h283l100 -437l76 -438l76 438l100 437h283l-309 -1053h-299z" />
<glyph unicode="w" horiz-adv-x="1435" d="M23 1053h272l154 -713l159 713h230l168 -713l145 713h262l-278 -1053h-263l-159 684l-172 -684h-252z" />
<glyph unicode="x" horiz-adv-x="935" d="M10 0l299 545l-278 508h297q18 -37 68 -165t77 -202q1 0 16 36.5t35.5 90t40.5 106.5t35 92.5t16 41.5h289q-92 -172 -280 -516l299 -537h-295q-24 43 -82.5 177t-85.5 208q-23 -67 -80 -202t-80 -183h-291z" />
<glyph unicode="y" horiz-adv-x="940" d="M14 1053h289q129 -522 172 -758q23 121 84 385t90 373h279l-346 -1112q-24 -76 -58 -138.5t-66 -102t-72 -72.5t-68 -49.5t-60 -34.5q-7 -3 -10 -5q-6 7 -123 168q1 1 40 29t67.5 53.5t63.5 77.5t50 110z" />
<glyph unicode="z" horiz-adv-x="784" d="M45 0v178l375 664h-350v211h659v-172l-379 -670h385v-211h-690z" />
<glyph unicode="{" horiz-adv-x="675" d="M88 520v195q68 4 109 37.5t41 117.5v312q0 94 8.5 161t30 114.5t50.5 76.5t78 45t103 21.5t135 5.5v-176q-53 0 -86.5 -9.5t-52 -22t-26.5 -47.5t-9.5 -61t-1.5 -88v-12v-10v-322q0 -178 -148 -240q148 -68 148 -245v-328v-6q0 -46 0.5 -66t2.5 -51.5t6 -44t13 -31 t21 -25t31 -14.5t43.5 -10t58.5 -2v-176q-125 0 -199 17t-122.5 65.5t-66 128.5t-17.5 215v252q0 125 -32.5 171.5t-117.5 51.5z" />
<glyph unicode="|" horiz-adv-x="546" d="M164 -469v2050h221v-2050h-221z" />
<glyph unicode="}" horiz-adv-x="675" d="M31 -205q66 0 102.5 10t53 45t19.5 67t3 110v6v340q0 171 147 239q-147 68 -147 246v322v6q0 157 -26 200.5t-152 43.5v176q82 0 139 -6t105 -23.5t77 -46t49.5 -75.5t28.5 -109.5t8 -151.5v-272q0 -83 16.5 -128.5t47.5 -62.5t86 -20v-195q-54 -3 -84.5 -19t-48 -61 t-17.5 -127v-276q0 -93 -9.5 -159t-32 -112t-52 -74t-79.5 -43.5t-102.5 -20.5t-131.5 -5v176z" />
<glyph unicode="~" horiz-adv-x="1075" d="M78 719q150 194 299 194q54 0 106 -25t85.5 -54.5t76 -54.5t80.5 -25q97 0 172 88l98 -125q-1 -1 -18 -23.5t-22 -28.5t-23 -27.5t-28.5 -30t-29.5 -25.5t-35 -25t-37 -17.5t-43.5 -13.5t-45.5 -4q-52 0 -103.5 24.5t-85.5 53.5t-77 53.5t-82 24.5q-58 0 -109 -32 t-78 -64q-5 7 -42 58.5t-58 78.5z" />
<glyph unicode="&#xa1;" horiz-adv-x="573" d="M131 893q0 75 43.5 123.5t108.5 48.5t109 -49t44 -123q0 -76 -44 -124t-109 -48t-108.5 48t-43.5 124zM133 -393l35 907h246q12 -313 32 -907h-313z" />
<glyph unicode="&#xa2;" horiz-adv-x="808" d="M59 655q0 224 80 356t228 171q-5 180 -5 217h205q0 -65 -4 -205q106 -7 193 -41q-31 -170 -35 -197q-89 33 -178 33q-101 0 -150 -78t-49 -245q0 -312 188 -312q31 0 64.5 7.5t53.5 14.5t47 19t30 13l64 -172q-7 -3 -43 -23.5t-84 -39.5t-101 -26q4 -132 4 -198h-205 q0 33 5 203q-148 33 -228 158.5t-80 344.5z" />
<glyph unicode="&#xa3;" horiz-adv-x="1007" d="M82 618v164h123q-8 118 -8 205q0 189 98.5 287t284.5 98q161 0 313 -61l-35 -197q-107 43 -213 43q-83 0 -120.5 -44t-37.5 -140q0 -27 1.5 -60.5t3 -72.5t2.5 -58h284v-164h-270q4 -86 4 -149q0 -152 -35 -256h479v-213h-856v180q50 31 79.5 65.5t43.5 86.5v131 q0 61 -4 155h-137z" />
<glyph unicode="&#xa5;" horiz-adv-x="1030" d="M41 1348h307l176 -553q69 186 189 553h280q-155 -366 -260 -586h170v-152h-223q-17 -72 -27 -127h250v-151h-256v-332h-278v332h-265v151h258l-26 127h-232v152h172q-45 114 -128.5 321t-106.5 265z" />
<glyph unicode="&#xa6;" horiz-adv-x="546" d="M160 285h225v-754h-225v754zM160 829v752h225v-752h-225z" />
<glyph unicode="&#xa7;" horiz-adv-x="917" d="M90 584q0 82 43 151t98 115q-106 82 -106 215q0 147 92 227t266 80q37 0 74 -3.5t65 -8t57.5 -11.5t46 -11.5t37 -11t23.5 -7.5q-4 -64 -16 -184q-120 36 -223 36q-75 0 -112.5 -28.5t-37.5 -73.5q0 -32 25 -58.5t64.5 -46.5t87.5 -41t96.5 -48t88 -61.5t64.5 -88.5 t25 -121q0 -80 -43 -152t-96 -116q47 -34 76.5 -88.5t29.5 -120.5q0 -152 -95 -237t-286 -85q-52 0 -100 7t-89.5 21t-64.5 23t-56 26l-32 16l49 172q4 -1 34 -15.5t56 -24.5t70 -20t86 -10q64 0 108 33t44 80q0 45 -27.5 77t-93.5 54q-127 52 -169 76q-140 82 -157 222 q-2 20 -2 42zM311 631q0 -31 7.5 -54t18 -37.5t35.5 -29t47 -24.5t66 -29t80 -37q18 22 27.5 35.5t20 40.5t10.5 53q0 73 -54.5 123.5t-167.5 89.5q-47 -10 -68.5 -47t-21.5 -84z" />
<glyph unicode="&#xa8;" horiz-adv-x="874" d="M68 1376q0 68 40 112t99 44t97 -43.5t38 -112.5t-38 -112t-97 -43t-99 43.5t-40 111.5zM459 1376q0 68 39 112t98 44t99 -44t40 -112t-40 -111.5t-99 -43.5t-98 43.5t-39 111.5z" />
<glyph unicode="&#xa9;" horiz-adv-x="1409" d="M98 672q0 157 46.5 290t128 223t193 140.5t239.5 50.5t239.5 -50.5t192.5 -140.5t127.5 -223t46.5 -290q0 -208 -79.5 -368.5t-217 -246.5t-309.5 -86t-310 86t-217.5 246.5t-79.5 368.5zM260 672q0 -244 126 -394.5t316 -150.5q192 0 319.5 150.5t127.5 394.5 t-128 395.5t-319 151.5q-190 0 -316 -151t-126 -396zM442 668q0 190 74 284.5t215 94.5q28 0 52 -2.5t44.5 -7.5t30.5 -8t28 -10l17 -7q-18 -98 -26 -133q-45 20 -119 20q-73 0 -108.5 -53.5t-35.5 -177.5t35.5 -178t108.5 -54q72 0 119 21q8 -35 26 -133l-17 -7 q-18 -7 -28 -10t-30.5 -8t-44.5 -7.5t-52 -2.5q-141 0 -215 94.5t-74 284.5z" />
<glyph unicode="&#xaa;" horiz-adv-x="798" d="M53 760q0 289 369 289q35 -5 47 -5v35q0 70 -30.5 97.5t-88.5 27.5q-110 0 -215 -37l-18 160q131 51 272 51q156 0 224.5 -78.5t68.5 -236.5v-551h-182l-13 84q-80 -104 -211 -104q-100 0 -161.5 67t-61.5 201zM262 776q0 -55 23.5 -92t62.5 -37q64 0 121 72v199h-88 q-60 -4 -89.5 -44t-29.5 -98z" />
<glyph unicode="&#xab;" horiz-adv-x="978" d="M86 549l307 387l127 -111q-34 -45 -100.5 -137t-100.5 -137l203 -275l-129 -120zM467 549l305 385l125 -111l-197 -272q21 -29 199 -272q-125 -119 -127 -121q-208 269 -305 391z" />
<glyph unicode="&#xac;" horiz-adv-x="993" d="M98 555v217h781v-563h-226v346h-555z" />
<glyph unicode="&#xad;" horiz-adv-x="653" d="M74 463v221h506v-221h-506z" />
<glyph unicode="&#xae;" horiz-adv-x="1212" d="M98 979q0 272 144.5 435t363.5 163t362.5 -163t143.5 -435q0 -273 -143 -436.5t-363 -163.5q-222 0 -365 163.5t-143 436.5zM231 979q0 -217 105 -341t268 -124t269 124t106 341q0 216 -106 341.5t-269 125.5t-268 -125.5t-105 -341.5zM430 676v604q6 0 58 4t102 4 q110 0 164.5 -42.5t54.5 -145.5q0 -134 -123 -178l141 -246h-139l-92 184q-26 9 -51 23v-207h-115zM545 983q57 0 100 28t43 81q0 52 -20.5 73t-67.5 21h-55v-203z" />
<glyph unicode="&#xaf;" horiz-adv-x="882" d="M174 1282v164h522v-164h-522z" />
<glyph unicode="&#xb0;" horiz-adv-x="856" d="M104 1087q0 167 92 268t232 101q138 0 229 -101t91 -268q0 -168 -90 -270t-230 -102q-142 0 -233 102t-91 270zM289 1087q0 -82 39 -131t100 -49q60 0 99.5 49t39.5 131q0 83 -39.5 131t-99.5 48t-99.5 -48t-39.5 -131z" />
<glyph unicode="&#xb1;" horiz-adv-x="1015" d="M100 14v215h813v-215h-813zM129 688v215h268v291h226v-291h266v-215h-266v-293h-226v293h-268z" />
<glyph unicode="&#xb2;" horiz-adv-x="638" d="M33 440v158q127 134 185 210q142 184 142 298q0 63 -31.5 92t-95.5 29q-45 0 -91 -12t-68 -23l-35 156q113 55 244 55q145 0 223 -69t78 -199q0 -70 -25 -139.5t-73 -137.5t-92 -118t-109 -115h311v-185h-563z" />
<glyph unicode="&#xb3;" horiz-adv-x="651" d="M12 485l54 140q1 -1 14 -7t24 -11t30.5 -12t37.5 -12t41 -8.5t45 -3.5q156 0 156 144q0 121 -152 121q-25 0 -62 -1t-42 -1v145h49q73 0 112 16q22 9 46 43t24 84q0 109 -137 109q-84 0 -166 -33l-35 148q122 45 242 45q143 0 222 -61t79 -175q0 -150 -135 -225 q77 -20 121.5 -76t44.5 -149q0 -149 -90.5 -221t-247.5 -72q-53 0 -104.5 10.5t-81 22.5t-57.5 25.5t-32 14.5z" />
<glyph unicode="&#xb4;" horiz-adv-x="735" d="M207 1284l285 342l155 -149q-53 -51 -160.5 -151.5t-160.5 -151.5z" />
<glyph unicode="&#xb5;" horiz-adv-x="1044" d="M100 -469v1522h277v-574q0 -156 28 -215t103 -59q65 0 108 54t46 126v668h276v-1053h-248l-10 119q-2 0 -12 -15t-27.5 -36t-41 -42t-58.5 -36t-74 -15q-50 0 -96 50v-494h-271z" />
<glyph unicode="&#xb7;" horiz-adv-x="546" d="M121 686q0 74 44 123t109 49t108.5 -48.5t43.5 -123.5q0 -76 -43.5 -124t-108.5 -48t-109 48t-44 124z" />
<glyph unicode="&#xb8;" horiz-adv-x="724" d="M170 -422l55 107q2 -1 20 -12.5t39 -20t42 -8.5q40 0 63 18.5t23 54.5q0 25 -25 44t-54.5 29t-51 25.5t-15.5 34.5l47 154h123q-1 -5 -6.5 -20.5t-8 -26.5t0.5 -29q2 -6 29 -16q64 -30 104.5 -76t40.5 -127q0 -95 -66.5 -148t-173.5 -53q-34 0 -68 10t-55 21.5 t-40.5 24.5t-22.5 14z" />
<glyph unicode="&#xb9;" horiz-adv-x="512" d="M-8 1167q195 173 268 222h174v-953h-211v725q-101 -93 -147 -129z" />
<glyph unicode="&#xba;" horiz-adv-x="806" d="M61 936q0 223 90 329.5t252 106.5t252 -106.5t90 -329.5t-90 -330.5t-252 -107.5t-252 107.5t-90 330.5zM270 938q0 -264 133 -264q134 0 134 262q0 260 -134 260q-133 0 -133 -258z" />
<glyph unicode="&#xbb;" horiz-adv-x="978" d="M78 815l127 119l305 -389l-305 -387l-125 110l196 275zM457 817l127 119l309 -391q-59 -75 -168 -211.5t-141 -177.5l-125 110q14 19 86 121t112 156q-40 53 -112 153t-88 121z" />
<glyph unicode="&#xbc;" horiz-adv-x="1617" d="M-8 1167q195 173 268 222h174v-953h-211v725q-101 -93 -147 -129zM369 51l649 1239l203 -26l-648 -1241q-40 5 -204 28zM922 41v129l249 569h205l-231 -538h160v166l196 28v-194h76v-160h-76v-246h-196v246h-383z" />
<glyph unicode="&#xbd;" horiz-adv-x="1617" d="M-8 1167q195 173 268 222h174v-953h-211v725q-101 -93 -147 -129zM369 51l649 1239l203 -26l-648 -1241q-40 5 -204 28zM1012 -47q119 126 170 190q157 196 157 316q0 65 -31 93t-96 28q-45 0 -91 -12t-68 -23l-35 155q115 56 244 56q145 0 223 -69.5t78 -199.5 q0 -70 -25 -139.5t-73 -136.5t-92.5 -117.5t-108.5 -113.5h311v-185h-563v158z" />
<glyph unicode="&#xbe;" horiz-adv-x="1800" d="M43 487l53 140q1 0 14 -6.5t24 -11.5t30.5 -12t37.5 -12t41.5 -8.5t45.5 -3.5q155 0 155 144q0 121 -151 121q-25 0 -62.5 -1t-42.5 -1v145h50q77 0 112 16q20 7 45 42t25 85q0 109 -137 109q-83 0 -166 -33l-35 148q122 45 242 45q143 0 222 -61t79 -175 q0 -150 -136 -225q77 -20 121.5 -76t44.5 -149q0 -149 -90.5 -221t-247.5 -72q-53 0 -104.5 10.5t-81 22.5t-57 25.5t-31.5 14.5zM551 51l649 1239l203 -26l-647 -1241q-45 5 -205 28zM1104 41v129l250 569h205l-232 -538h160v166l196 28v-194h76v-160h-76v-246h-196v246 h-383z" />
<glyph unicode="&#xbf;" horiz-adv-x="749" d="M16 -80q0 69 17.5 126.5t45.5 97t62 74t68 66t62 64t45.5 77t17.5 97.5v13q24 0 110 8t111 8q0 -7 1 -20t1 -19q0 -83 -25.5 -150t-62 -112t-73 -86.5t-62 -94.5t-25.5 -116q0 -73 37 -109.5t117 -36.5q109 0 213 54l49 -203q-1 0 -13.5 -8t-19.5 -11.5l-23 -11.5 t-29.5 -13t-34 -12.5t-41.5 -12t-45.5 -9t-53.5 -6.5t-59 -2q-82 0 -151 20.5t-123.5 61.5t-85 109t-30.5 157zM291 893q0 75 43 123.5t108 48.5q64 0 108 -49t44 -123q0 -75 -44 -122.5t-108 -47.5q-65 0 -108 47t-43 123z" />
<glyph unicode="&#xc0;" horiz-adv-x="1132" d="M23 0l374 1348h344l369 -1348h-301l-61 233h-377l-62 -233h-286zM291 1772l153 149l285 -342l-119 -111zM414 430h291q-18 80 -51.5 229.5t-57 256.5t-35.5 171q-18 -89 -147 -657z" />
<glyph unicode="&#xc1;" horiz-adv-x="1132" d="M23 0l374 1348h344l369 -1348h-301l-61 233h-377l-62 -233h-286zM410 1579l284 342l156 -149q-53 -51 -161 -152t-161 -152zM414 430h291q-18 80 -51.5 229.5t-57 256.5t-35.5 171q-18 -89 -147 -657z" />
<glyph unicode="&#xc2;" horiz-adv-x="1132" d="M23 0l374 1348h344l369 -1348h-301l-61 233h-377l-62 -233h-286zM248 1669l244 232h133l258 -230l-101 -145l-217 157l-219 -157zM414 430h291q-18 80 -51.5 229.5t-57 256.5t-35.5 171q-18 -89 -147 -657z" />
<glyph unicode="&#xc3;" horiz-adv-x="1132" d="M23 0l374 1348h344l369 -1348h-301l-61 233h-377l-62 -233h-286zM188 1634l30 40t41.5 51.5t46 45t62.5 38t72 12.5q50 0 97.5 -21.5t89.5 -43t78 -21.5q30 0 62 16t47.5 29.5t25.5 25.5l104 -82q-7 -8 -29 -40t-39.5 -52.5t-44.5 -46t-61 -38.5t-72 -13 q-48 0 -95.5 20.5t-90 41t-78.5 20.5q-43 0 -84 -25.5t-59 -48.5zM414 430h291q-18 80 -51.5 229.5t-57 256.5t-35.5 171q-18 -89 -147 -657z" />
<glyph unicode="&#xc4;" horiz-adv-x="1132" d="M23 0l374 1348h344l369 -1348h-301l-61 233h-377l-62 -233h-286zM231 1671q0 68 40.5 112t99.5 44t97 -43.5t38 -112.5t-38 -112t-97 -43t-99.5 43.5t-40.5 111.5zM414 430h291q-18 80 -51.5 229.5t-57 256.5t-35.5 171q-18 -89 -147 -657zM623 1671q0 68 39 112t98 44 t99 -44t40 -112t-40 -111.5t-99 -43.5t-98 43.5t-39 111.5z" />
<glyph unicode="&#xc5;" horiz-adv-x="1132" d="M23 0l374 1348h344l369 -1348h-301l-61 233h-377l-62 -233h-286zM348 1749q0 100 61.5 165.5t155.5 65.5q91 0 154 -66t63 -165q0 -101 -61.5 -168.5t-155.5 -67.5q-95 0 -156 67t-61 169zM414 430h291q-18 80 -51.5 229.5t-57 256.5t-35.5 171q-18 -89 -147 -657z M473 1749q0 -48 25.5 -78.5t66.5 -30.5t65.5 30.5t24.5 78.5q0 46 -24.5 76t-65.5 30q-40 0 -66 -30t-26 -76z" />
<glyph unicode="&#xc6;" horiz-adv-x="1406" d="M23 0l374 1348h930v-232h-442v-311h336v-217h-336v-357h442v-231h-729v233h-227l-62 -233h-286zM414 430h184v657h-37q-18 -89 -147 -657z" />
<glyph unicode="&#xc7;" horiz-adv-x="976" d="M68 672q0 702 548 702q59 0 117 -9t90 -18.5t68 -22t39 -13.5q-22 -114 -39 -215q-124 51 -225 51q-169 0 -235 -113t-66 -362t66 -362t235 -113q101 0 225 51q17 -101 39 -215q-4 -1 -39.5 -13.5t-68 -22.5t-90 -19t-116.5 -9h-18q-7 -22 -2 -41q2 -6 29 -16 q64 -30 104.5 -76t40.5 -127q0 -95 -66.5 -148t-173.5 -53q-34 0 -68 10t-55 21.5t-40.5 24.5t-22.5 14l55 107q2 -1 20 -12.5t39 -20t42 -8.5q40 0 63 18.5t23 54.5q0 25 -25 44t-54.5 29t-51 25.5t-15.5 34.5l39 132q-411 80 -411 690z" />
<glyph unicode="&#xc8;" horiz-adv-x="921" d="M127 0v1348h729v-232h-442v-311h336v-217h-336v-357h442v-231h-729zM242 1772l153 149l285 -342l-119 -111z" />
<glyph unicode="&#xc9;" horiz-adv-x="921" d="M127 0v1348h729v-232h-442v-311h336v-217h-336v-357h442v-231h-729zM326 1579l284 342l156 -149q-53 -51 -161 -152t-161 -152z" />
<glyph unicode="&#xca;" horiz-adv-x="921" d="M127 0v1348h729v-232h-442v-311h336v-217h-336v-357h442v-231h-729zM143 1669l244 232h133l258 -230l-100 -145l-217 157l-219 -157z" />
<glyph unicode="&#xcb;" horiz-adv-x="921" d="M127 0v1348h729v-232h-442v-311h336v-217h-336v-357h442v-231h-729zM127 1671q0 68 40 112t99 44t97 -43.5t38 -112.5t-38 -112t-97 -43t-99 43.5t-40 111.5zM518 1671q0 68 39 112t98 44t99.5 -44t40.5 -112t-40.5 -111.5t-99.5 -43.5t-98 43.5t-39 111.5z" />
<glyph unicode="&#xcc;" horiz-adv-x="540" d="M51 1772l154 149l284 -342l-118 -111zM127 0v1348h285v-1348h-285z" />
<glyph unicode="&#xcd;" horiz-adv-x="540" d="M51 1579l285 342l156 -149q-53 -51 -161 -152t-161 -152zM127 0v1348h285v-1348h-285z" />
<glyph unicode="&#xce;" horiz-adv-x="540" d="M-47 1669l244 232h133l258 -230l-101 -145l-217 157l-219 -157zM127 0v1348h285v-1348h-285z" />
<glyph unicode="&#xcf;" horiz-adv-x="540" d="M-63 1671q0 68 40 112t99 44t97 -43.5t38 -112.5t-38 -112t-97 -43t-99 43.5t-40 111.5zM127 0v1348h285v-1348h-285zM328 1671q0 68 39 112t98 44t99 -44t40 -112t-40 -111.5t-99 -43.5t-98 43.5t-39 111.5z" />
<glyph unicode="&#xd0;" horiz-adv-x="1138" d="M0 553v221h127v574q21 0 142.5 6t213.5 6q119 0 206.5 -18t162.5 -64.5t121.5 -123.5t72 -197.5t25.5 -284.5q0 -162 -25.5 -280.5t-72 -196.5t-120.5 -124.5t-162.5 -65.5t-207.5 -19q-91 0 -212.5 7t-143.5 7v553h-127zM412 211q29 -2 98 -2q139 0 203.5 114.5 t64.5 348.5q0 241 -64 353t-206 112q-30 0 -96 -4v-359h94v-221h-94v-342z" />
<glyph unicode="&#xd1;" horiz-adv-x="1183" d="M127 0v1348h256q107 -210 426 -846h4q0 10 -3 63.5t-3 85.5v697h250v-1348h-254l-430 850h-2q0 -9 3 -63t3 -89v-698h-250zM213 1634l30 40t41.5 51.5t46 45t62.5 38t72 12.5q50 0 97 -21.5t89 -43t78 -21.5q30 0 62 16t47.5 29.5t25.5 25.5l105 -82q-7 -8 -29 -40 t-39.5 -52.5t-44.5 -46t-61 -38.5t-72 -13q-48 0 -95.5 20.5t-90 41t-78.5 20.5q-43 0 -84.5 -25.5t-59.5 -48.5z" />
<glyph unicode="&#xd2;" d="M68 674q0 352 131 525t383 173q516 0 516 -698q0 -353 -131.5 -527t-384.5 -174q-251 0 -382.5 174t-131.5 527zM276 1772l154 149l285 -342l-119 -111zM360 674q0 -473 222 -473q225 0 225 473q0 471 -225 471q-222 0 -222 -471z" />
<glyph unicode="&#xd3;" d="M68 674q0 352 131 525t383 173q516 0 516 -698q0 -353 -131.5 -527t-384.5 -174q-251 0 -382.5 174t-131.5 527zM360 674q0 -473 222 -473q225 0 225 473q0 471 -225 471q-222 0 -222 -471zM446 1579l285 342l156 -149q-53 -51 -161 -152t-161 -152z" />
<glyph unicode="&#xd4;" d="M68 674q0 352 131 525t383 173q516 0 516 -698q0 -353 -131.5 -527t-384.5 -174q-251 0 -382.5 174t-131.5 527zM266 1669l244 232h133l258 -230l-100 -145l-217 157l-219 -157zM360 674q0 -473 222 -473q225 0 225 473q0 471 -225 471q-222 0 -222 -471z" />
<glyph unicode="&#xd5;" d="M68 674q0 352 131 525t383 173q516 0 516 -698q0 -353 -131.5 -527t-384.5 -174q-251 0 -382.5 174t-131.5 527zM205 1634l30 40t41.5 51.5t46 45t62.5 38t72 12.5q50 0 97 -21.5t89 -43t78 -21.5q30 0 62 16t47.5 29.5t25.5 25.5l105 -82q-7 -8 -29 -40t-39.5 -52.5 t-44.5 -46t-61 -38.5t-72 -13q-48 0 -95.5 20.5t-90 41t-78.5 20.5q-43 0 -84.5 -25.5t-59.5 -48.5zM360 674q0 -473 222 -473q225 0 225 473q0 471 -225 471q-222 0 -222 -471z" />
<glyph unicode="&#xd6;" d="M68 674q0 352 131 525t383 173q516 0 516 -698q0 -353 -131.5 -527t-384.5 -174q-251 0 -382.5 174t-131.5 527zM250 1671q0 68 40 112t99 44t97 -43.5t38 -112.5t-38 -112t-97 -43t-99 43.5t-40 111.5zM360 674q0 -473 222 -473q225 0 225 473q0 471 -225 471 q-222 0 -222 -471zM641 1671q0 68 39 112t98 44t99.5 -44t40.5 -112t-40.5 -111.5t-99.5 -43.5t-98 43.5t-39 111.5z" />
<glyph unicode="&#xd8;" d="M23 59l122 177q-77 168 -77 438q0 352 131 525t383 173q179 0 297 -86l84 119l182 -127l-123 -176q76 -169 76 -428q0 -353 -131.5 -527t-384.5 -174q-175 0 -291 82l-86 -123zM360 674q0 -76 5 -125l362 518q-57 78 -145 78q-222 0 -222 -471zM440 272q53 -71 142 -71 q225 0 225 473q0 44 -4 114z" />
<glyph unicode="&#xd9;" horiz-adv-x="1134" d="M111 633v715h284v-715q0 -84 2 -137t7.5 -107t17 -85t30.5 -56.5t47.5 -36t67.5 -10.5q40 0 68 10t47 36.5t30 56.5t16.5 85.5t7 106.5t1.5 137v715h281v-715q0 -360 -101.5 -510t-349.5 -150q-247 0 -351.5 151t-104.5 509zM256 1772l154 149l284 -342l-119 -111z" />
<glyph unicode="&#xda;" horiz-adv-x="1134" d="M111 633v715h284v-715q0 -84 2 -137t7.5 -107t17 -85t30.5 -56.5t47.5 -36t67.5 -10.5q40 0 68 10t47 36.5t30 56.5t16.5 85.5t7 106.5t1.5 137v715h281v-715q0 -360 -101.5 -510t-349.5 -150q-247 0 -351.5 151t-104.5 509zM453 1579l284 342l156 -149 q-53 -51 -161 -152t-161 -152z" />
<glyph unicode="&#xdb;" horiz-adv-x="1134" d="M111 633v715h284v-715q0 -84 2 -137t7.5 -107t17 -85t30.5 -56.5t47.5 -36t67.5 -10.5q40 0 68 10t47 36.5t30 56.5t16.5 85.5t7 106.5t1.5 137v715h281v-715q0 -360 -101.5 -510t-349.5 -150q-247 0 -351.5 151t-104.5 509zM250 1669l244 232h133l258 -230l-101 -145 l-217 157l-219 -157z" />
<glyph unicode="&#xdc;" horiz-adv-x="1134" d="M111 633v715h284v-715q0 -84 2 -137t7.5 -107t17 -85t30.5 -56.5t47.5 -36t67.5 -10.5q40 0 68 10t47 36.5t30 56.5t16.5 85.5t7 106.5t1.5 137v715h281v-715q0 -360 -101.5 -510t-349.5 -150q-247 0 -351.5 151t-104.5 509zM233 1671q0 68 40.5 112t99.5 44t97 -43.5 t38 -112.5t-38 -112t-97 -43t-99.5 43.5t-40.5 111.5zM625 1671q0 68 39 112t98 44t99 -44t40 -112t-40 -111.5t-99 -43.5t-98 43.5t-39 111.5z" />
<glyph unicode="&#xdd;" horiz-adv-x="1081" d="M-4 1348h305q188 -500 240 -648q66 189 239 648h305q-54 -119 -176.5 -396.5t-189.5 -425.5l-35 -82v-444h-285v444l-37 82q-67 148 -189.5 425.5t-176.5 396.5zM319 1579l285 342l156 -149q-53 -51 -161 -152t-161 -152z" />
<glyph unicode="&#xde;" horiz-adv-x="1015" d="M127 0v1348h279v-203q25 2 73 2q256 0 371 -114.5t115 -346.5q0 -124 -35.5 -215.5t-100 -144t-146.5 -77t-183 -24.5q-50 0 -94 6v-231h-279zM406 440q23 -2 73 -2q95 0 147 57.5t52 188.5q0 122 -49 183t-140 61q-54 0 -83 -2v-486z" />
<glyph unicode="&#xdf;" horiz-adv-x="1097" d="M100 0v1096q0 229 111 334.5t309 105.5q186 0 280.5 -84.5t94.5 -263.5q0 -64 -20 -119.5t-45.5 -88t-54.5 -72.5t-40 -70q19 -24 62.5 -60t83.5 -71t80 -81.5t64 -110t24 -136.5q0 -190 -96.5 -297t-266.5 -107q-35 0 -67.5 4.5t-59.5 12.5t-44.5 14.5t-39 16.5 t-26.5 12l36 180q3 -1 19.5 -8t31.5 -12t40 -10t49 -5q127 0 127 148q0 47 -9 88t-30 80.5t-62 66.5t-98 35q-40 62 -62 116t-22 122q0 26 16.5 51.5t39.5 50t46 53.5t39.5 72.5t16.5 95.5q0 164 -115 164q-71 0 -103 -53t-32 -178v-1092h-277z" />
<glyph unicode="&#xe0;" horiz-adv-x="956" d="M47 293q0 191 120 276.5t370 85.5l47 -4v25q0 62 -12.5 101.5t-38 58.5t-54 25.5t-71.5 6.5q-118 0 -256 -45l-31 189q173 63 334 63q208 0 305.5 -99.5t97.5 -307.5v-668h-254q-7 72 -14 115q-1 -1 -16 -19t-26.5 -30t-35.5 -31t-48 -30.5t-60.5 -20.5t-75.5 -9 q-123 0 -202 80t-79 238zM193 1477l153 149l285 -342l-119 -110zM313 326q0 -150 119 -150q91 0 152 88v232q-38 0 -56 2q-117 0 -166 -38t-49 -134z" />
<glyph unicode="&#xe1;" horiz-adv-x="956" d="M47 293q0 191 120 276.5t370 85.5l47 -4v25q0 62 -12.5 101.5t-38 58.5t-54 25.5t-71.5 6.5q-118 0 -256 -45l-31 189q173 63 334 63q208 0 305.5 -99.5t97.5 -307.5v-668h-254q-7 72 -14 115q-1 -1 -16 -19t-26.5 -30t-35.5 -31t-48 -30.5t-60.5 -20.5t-75.5 -9 q-123 0 -202 80t-79 238zM313 326q0 -150 119 -150q91 0 152 88v232q-38 0 -56 2q-117 0 -166 -38t-49 -134zM315 1284l285 342l156 -149q-53 -51 -161 -151.5t-161 -151.5z" />
<glyph unicode="&#xe2;" horiz-adv-x="956" d="M47 293q0 191 120 276.5t370 85.5l47 -4v25q0 62 -12.5 101.5t-38 58.5t-54 25.5t-71.5 6.5q-118 0 -256 -45l-31 189q173 63 334 63q208 0 305.5 -99.5t97.5 -307.5v-668h-254q-7 72 -14 115q-1 -1 -16 -19t-26.5 -30t-35.5 -31t-48 -30.5t-60.5 -20.5t-75.5 -9 q-123 0 -202 80t-79 238zM160 1374l243 232h134l258 -230l-101 -145l-217 158l-219 -158zM313 326q0 -150 119 -150q91 0 152 88v232q-38 0 -56 2q-117 0 -166 -38t-49 -134z" />
<glyph unicode="&#xe3;" horiz-adv-x="956" d="M47 293q0 191 120 276.5t370 85.5l47 -4v25q0 62 -12.5 101.5t-38 58.5t-54 25.5t-71.5 6.5q-118 0 -256 -45l-31 189q173 63 334 63q208 0 305.5 -99.5t97.5 -307.5v-668h-254q-7 72 -14 115q-1 -1 -16 -19t-26.5 -30t-35.5 -31t-48 -30.5t-60.5 -20.5t-75.5 -9 q-123 0 -202 80t-79 238zM100 1339l30 40t41.5 51.5t46 45t62.5 38t72 12.5q50 0 97 -21.5t89 -43t78 -21.5q30 0 62 16t48 30t26 25l104 -81q-7 -9 -29 -41t-39.5 -52.5t-44.5 -46t-61 -38.5t-72 -13q-48 0 -95.5 20.5t-90 41t-78.5 20.5q-43 0 -84 -25.5t-59 -48.5z M313 326q0 -150 119 -150q91 0 152 88v232q-38 0 -56 2q-117 0 -166 -38t-49 -134z" />
<glyph unicode="&#xe4;" horiz-adv-x="956" d="M47 293q0 191 120 276.5t370 85.5l47 -4v25q0 62 -12.5 101.5t-38 58.5t-54 25.5t-71.5 6.5q-118 0 -256 -45l-31 189q173 63 334 63q208 0 305.5 -99.5t97.5 -307.5v-668h-254q-7 72 -14 115q-1 -1 -16 -19t-26.5 -30t-35.5 -31t-48 -30.5t-60.5 -20.5t-75.5 -9 q-123 0 -202 80t-79 238zM143 1376q0 68 40.5 112t99.5 44t97 -43.5t38 -112.5t-38 -112t-97 -43t-99.5 43.5t-40.5 111.5zM313 326q0 -150 119 -150q91 0 152 88v232q-38 0 -56 2q-117 0 -166 -38t-49 -134zM535 1376q0 68 39 112t98 44t99 -44t40 -112t-40 -111.5 t-99 -43.5t-98 43.5t-39 111.5z" />
<glyph unicode="&#xe5;" horiz-adv-x="956" d="M47 293q0 191 120 276.5t370 85.5l47 -4v25q0 62 -12.5 101.5t-38 58.5t-54 25.5t-71.5 6.5q-118 0 -256 -45l-31 189q173 63 334 63q208 0 305.5 -99.5t97.5 -307.5v-668h-254q-7 72 -14 115q-1 -1 -16 -19t-26.5 -30t-35.5 -31t-48 -30.5t-60.5 -20.5t-75.5 -9 q-123 0 -202 80t-79 238zM260 1454q0 100 61.5 166t155.5 66q91 0 154 -66.5t63 -165.5q0 -101 -61.5 -168t-155.5 -67q-95 0 -156 66.5t-61 168.5zM313 326q0 -150 119 -150q91 0 152 88v232q-38 0 -56 2q-117 0 -166 -38t-49 -134zM385 1454q0 -48 25.5 -78t66.5 -30 t65.5 30t24.5 78q0 47 -24.5 77t-65.5 30q-40 0 -66 -30.5t-26 -76.5z" />
<glyph unicode="&#xe6;" horiz-adv-x="1462" d="M47 293q0 191 120 276.5t370 85.5l47 -4v25q0 62 -12.5 101.5t-38 58.5t-54 25.5t-71.5 6.5q-118 0 -256 -45l-31 189q173 63 334 63q216 0 301 -137q98 137 252 137q184 0 290.5 -120.5t106.5 -368.5q0 -84 -12 -144h-535q1 -130 58.5 -194t150.5 -64q20 0 41 2.5 t37.5 5.5t37.5 9t32.5 10t32 12.5t27 11.5t25 11.5t19.5 9.5l55 -180q-157 -101 -360 -101q-197 0 -295 175q-67 -88 -168.5 -131.5t-222.5 -43.5q-123 0 -202 80t-79 238zM313 326q0 -150 119 -150q91 0 152 88v232q-38 0 -56 2q-117 0 -166 -38t-49 -134zM858 614h281 q0 147 -35 206t-98 59q-61 0 -104 -63.5t-44 -201.5z" />
<glyph unicode="&#xe7;" horiz-adv-x="788" d="M57 510q0 283 113.5 424t331.5 141q132 0 246 -43l-33 -203q-89 33 -174 33q-102 0 -150.5 -82.5t-48.5 -259.5q0 -176 48 -253t142 -77q37 0 75.5 11t75 27.5t38.5 17.5l63 -176q-7 -3 -39.5 -21t-63 -32.5t-83 -27.5t-106.5 -14q-11 -25 -5 -47q2 -6 29 -16 q64 -30 105 -76t41 -127q0 -95 -66.5 -148t-173.5 -53q-34 0 -68 10t-55 21.5t-40.5 24.5t-22.5 14l55 107q2 -1 19.5 -12.5t38.5 -20t42 -8.5q40 0 63 18.5t23 54.5q0 25 -25 44t-54.5 29t-50.5 25.5t-15 34.5l41 136q-316 63 -316 524z" />
<glyph unicode="&#xe8;" horiz-adv-x="935" d="M57 498q0 143 33 254.5t91.5 181t134.5 105.5t165 36q184 0 291 -120.5t107 -368.5q0 -79 -13 -144h-534q1 -130 58.5 -194t150.5 -64q20 0 41 2.5t37.5 5.5t37.5 9t32.5 10t32 12.5t27 11.5t25 11.5t19.5 9.5l55 -180q-157 -101 -361 -101q-92 0 -168 30.5t-135.5 92 t-93 164t-33.5 236.5zM248 1477l153 149l285 -342l-119 -110zM332 614h280q0 147 -35 206t-98 59q-61 0 -103.5 -63.5t-43.5 -201.5z" />
<glyph unicode="&#xe9;" horiz-adv-x="935" d="M57 498q0 143 33 254.5t91.5 181t134.5 105.5t165 36q184 0 291 -120.5t107 -368.5q0 -79 -13 -144h-534q1 -130 58.5 -194t150.5 -64q20 0 41 2.5t37.5 5.5t37.5 9t32.5 10t32 12.5t27 11.5t25 11.5t19.5 9.5l55 -180q-157 -101 -361 -101q-92 0 -168 30.5t-135.5 92 t-93 164t-33.5 236.5zM332 614h280q0 147 -35 206t-98 59q-61 0 -103.5 -63.5t-43.5 -201.5zM362 1284l285 342l156 -149q-53 -51 -161 -151.5t-161 -151.5z" />
<glyph unicode="&#xea;" horiz-adv-x="935" d="M57 498q0 143 33 254.5t91.5 181t134.5 105.5t165 36q184 0 291 -120.5t107 -368.5q0 -79 -13 -144h-534q1 -130 58.5 -194t150.5 -64q20 0 41 2.5t37.5 5.5t37.5 9t32.5 10t32 12.5t27 11.5t25 11.5t19.5 9.5l55 -180q-157 -101 -361 -101q-92 0 -168 30.5t-135.5 92 t-93 164t-33.5 236.5zM150 1374l243 232h133l258 -230l-100 -145l-217 158l-219 -158zM332 614h280q0 147 -35 206t-98 59q-61 0 -103.5 -63.5t-43.5 -201.5z" />
<glyph unicode="&#xeb;" horiz-adv-x="935" d="M57 498q0 143 33 254.5t91.5 181t134.5 105.5t165 36q184 0 291 -120.5t107 -368.5q0 -79 -13 -144h-534q1 -130 58.5 -194t150.5 -64q20 0 41 2.5t37.5 5.5t37.5 9t32.5 10t32 12.5t27 11.5t25 11.5t19.5 9.5l55 -180q-157 -101 -361 -101q-92 0 -168 30.5t-135.5 92 t-93 164t-33.5 236.5zM133 1376q0 68 40 112t99 44t97.5 -43.5t38.5 -112.5q0 -68 -38.5 -111.5t-97.5 -43.5t-99 43.5t-40 111.5zM332 614h280q0 147 -35 206t-98 59q-61 0 -103.5 -63.5t-43.5 -201.5zM524 1376q0 68 39.5 112t98.5 44t99 -44t40 -112t-40 -111.5 t-99 -43.5t-98.5 43.5t-39.5 111.5z" />
<glyph unicode="&#xec;" horiz-adv-x="489" d="M-55 1477l153 149l285 -342l-119 -110zM106 0v1053h277v-1053h-277z" />
<glyph unicode="&#xed;" horiz-adv-x="489" d="M106 0v1053h277v-1053h-277zM113 1284l284 342l156 -149q-53 -51 -161 -151.5t-161 -151.5z" />
<glyph unicode="&#xee;" horiz-adv-x="489" d="M-72 1374l244 232h133l258 -230l-100 -145l-217 158l-219 -158zM106 0v1053h277v-1053h-277z" />
<glyph unicode="&#xef;" horiz-adv-x="489" d="M-88 1376q0 68 40 112t99 44t97 -43.5t38 -112.5t-38 -112t-97 -43t-99 43.5t-40 111.5zM106 0v1053h277v-1053h-277zM303 1376q0 68 39 112t98 44t99.5 -44t40.5 -112t-40.5 -111.5t-99.5 -43.5t-98 43.5t-39 111.5z" />
<glyph unicode="&#xf0;" horiz-adv-x="983" d="M59 510q0 233 98.5 352t272.5 119q81 0 140 -34t87 -73q-20 127 -74 204t-165 147l-88 -138l-140 97l80 125l-151 84l106 194l166 -86l90 141l140 -96l-82 -129q100 -64 169 -134t122 -168.5t78.5 -231.5t25.5 -308q0 -140 -20 -245t-55.5 -172.5t-90.5 -109 t-118.5 -58.5t-145.5 -17q-208 0 -326.5 134t-118.5 403zM342 494q0 -156 36.5 -233t119.5 -77t118 76t35 252v53.5t-1.5 47.5t-4 45t-8 37.5t-13 34t-19.5 25t-27.5 20.5t-36.5 11t-47 5q-82 0 -117 -71t-35 -226z" />
<glyph unicode="&#xf1;" horiz-adv-x="1040" d="M106 0v1053h244l12 -135h5q1 0 20.5 20t34 33t45 35t59 35t69 23.5t81.5 10.5q143 0 205.5 -88.5t62.5 -277.5v-709h-276v641q0 114 -23 154.5t-86 40.5q-24 0 -49.5 -10.5t-41.5 -20.5t-39 -32.5t-27 -27.5t-21 -24v-721h-275zM141 1339l30 40t41.5 51.5t46 45t62.5 38 t72 12.5q50 0 97 -21.5t89 -43t78 -21.5q30 0 62 16t48 30t26 25l104 -81q-7 -9 -29 -41t-39.5 -52.5t-44.5 -46t-61 -38.5t-72 -13q-48 0 -95.5 20.5t-90 41t-78.5 20.5q-43 0 -84 -25.5t-59 -48.5z" />
<glyph unicode="&#xf2;" horiz-adv-x="1017" d="M57 526q0 549 451 549q105 0 186 -30.5t142 -95t93 -171.5t32 -252q0 -286 -119 -418.5t-334 -132.5q-451 0 -451 551zM217 1477l154 149l284 -342l-118 -110zM342 526q0 -184 39.5 -266t126.5 -82t126.5 82t39.5 266q0 183 -39.5 264.5t-126.5 81.5t-126.5 -81.5 t-39.5 -264.5z" />
<glyph unicode="&#xf3;" horiz-adv-x="1017" d="M57 526q0 549 451 549q105 0 186 -30.5t142 -95t93 -171.5t32 -252q0 -286 -119 -418.5t-334 -132.5q-451 0 -451 551zM342 526q0 -184 39.5 -266t126.5 -82t126.5 82t39.5 266q0 183 -39.5 264.5t-126.5 81.5t-126.5 -81.5t-39.5 -264.5zM358 1284l285 342l156 -149 q-53 -51 -161 -151.5t-161 -151.5z" />
<glyph unicode="&#xf4;" horiz-adv-x="1017" d="M57 526q0 549 451 549q105 0 186 -30.5t142 -95t93 -171.5t32 -252q0 -286 -119 -418.5t-334 -132.5q-451 0 -451 551zM190 1374l244 232h133l258 -230l-100 -145l-217 158l-219 -158zM342 526q0 -184 39.5 -266t126.5 -82t126.5 82t39.5 266q0 183 -39.5 264.5 t-126.5 81.5t-126.5 -81.5t-39.5 -264.5z" />
<glyph unicode="&#xf5;" horiz-adv-x="1017" d="M57 526q0 549 451 549q105 0 186 -30.5t142 -95t93 -171.5t32 -252q0 -286 -119 -418.5t-334 -132.5q-451 0 -451 551zM131 1339l30 40t41.5 51.5t46 45t62.5 38t72 12.5q50 0 97 -21.5t89 -43t78 -21.5q30 0 62 16t47.5 29.5t25.5 25.5l105 -81q-7 -9 -29 -41 t-39.5 -52.5t-44.5 -46t-61 -38.5t-72 -13q-48 0 -95.5 20.5t-90 41t-78.5 20.5q-43 0 -84.5 -25.5t-59.5 -48.5zM342 526q0 -184 39.5 -266t126.5 -82t126.5 82t39.5 266q0 183 -39.5 264.5t-126.5 81.5t-126.5 -81.5t-39.5 -264.5z" />
<glyph unicode="&#xf6;" horiz-adv-x="1017" d="M57 526q0 549 451 549q105 0 186 -30.5t142 -95t93 -171.5t32 -252q0 -286 -119 -418.5t-334 -132.5q-451 0 -451 551zM174 1376q0 68 40 112t99 44t97.5 -43.5t38.5 -112.5q0 -68 -38.5 -111.5t-97.5 -43.5t-99 43.5t-40 111.5zM342 526q0 -184 39.5 -266t126.5 -82 t126.5 82t39.5 266q0 183 -39.5 264.5t-126.5 81.5t-126.5 -81.5t-39.5 -264.5zM565 1376q0 68 39 112t98 44t99.5 -44t40.5 -112t-40.5 -111.5t-99.5 -43.5t-98 43.5t-39 111.5z" />
<glyph unicode="&#xf7;" horiz-adv-x="1015" d="M90 508v215h834v-215h-834zM356 236q0 74 44 120.5t108 46.5t106.5 -46.5t42.5 -120.5q0 -75 -42.5 -122.5t-106.5 -47.5t-108 47.5t-44 122.5zM356 1065q0 74 43 122t107 48t106.5 -48t42.5 -122t-42.5 -121t-106.5 -47t-107 47t-43 121z" />
<glyph unicode="&#xf8;" horiz-adv-x="1017" d="M45 51l84 121q-72 132 -72 354q0 549 451 549q130 0 221 -45l62 88l180 -127l-82 -119q72 -134 72 -346q0 -286 -119 -418.5t-334 -132.5q-127 0 -217 43l-66 -94zM342 477l254 365q-34 30 -88 30q-87 0 -126.5 -81.5t-39.5 -264.5v-49zM422 207q33 -29 86 -29 q87 0 126.5 82t39.5 266v39z" />
<glyph unicode="&#xf9;" horiz-adv-x="1038" d="M96 342v711h277v-574q0 -159 20 -210.5t92 -51.5q77 0 174 117v719h277v-1053h-240l-16 141l-57 -51l-20 -17q-20 -17 -31 -25.5t-37 -24.5t-48 -24.5t-54.5 -16t-65.5 -7.5q-143 0 -207 89t-64 278zM193 1477l153 149l285 -342l-119 -110z" />
<glyph unicode="&#xfa;" horiz-adv-x="1038" d="M96 342v711h277v-574q0 -159 20 -210.5t92 -51.5q77 0 174 117v719h277v-1053h-240l-16 141l-57 -51l-20 -17q-20 -17 -31 -25.5t-37 -24.5t-48 -24.5t-54.5 -16t-65.5 -7.5q-143 0 -207 89t-64 278zM377 1284l285 342l155 -149q-53 -51 -160.5 -151.5t-160.5 -151.5z " />
<glyph unicode="&#xfb;" horiz-adv-x="1038" d="M96 342v711h277v-574q0 -159 20 -210.5t92 -51.5q77 0 174 117v719h277v-1053h-240l-16 141l-57 -51l-20 -17q-20 -17 -31 -25.5t-37 -24.5t-48 -24.5t-54.5 -16t-65.5 -7.5q-143 0 -207 89t-64 278zM201 1374l243 232h134l258 -230l-101 -145l-217 158l-219 -158z" />
<glyph unicode="&#xfc;" horiz-adv-x="1038" d="M96 342v711h277v-574q0 -159 20 -210.5t92 -51.5q77 0 174 117v719h277v-1053h-240l-16 141l-57 -51l-20 -17q-20 -17 -31 -25.5t-37 -24.5t-48 -24.5t-54.5 -16t-65.5 -7.5q-143 0 -207 89t-64 278zM184 1376q0 68 40.5 112t99.5 44t97 -43.5t38 -112.5t-38 -112 t-97 -43t-99.5 43.5t-40.5 111.5zM575 1376q0 68 39.5 112t98.5 44t99 -44t40 -112t-40 -111.5t-99 -43.5t-98.5 43.5t-39.5 111.5z" />
<glyph unicode="&#xfd;" horiz-adv-x="940" d="M14 1053h289q129 -522 172 -758q23 121 84 385t90 373h279l-346 -1112q-24 -76 -58 -138.5t-66 -102t-72 -72.5t-68 -49.5t-60 -34.5q-7 -3 -10 -5q-6 7 -123 168q1 1 40 29t67.5 53.5t63.5 77.5t50 110zM354 1284l285 342l156 -149q-53 -51 -161 -151.5t-161 -151.5z " />
<glyph unicode="&#xfe;" horiz-adv-x="1044" d="M100 -469v1942l275 40v-587h4q49 61 120 105t156 44q145 0 238.5 -134.5t93.5 -401.5q0 -124 -23.5 -221t-62.5 -159t-94.5 -102t-114 -56.5t-125.5 -16.5q-110 0 -192 43v-496h-275zM375 205q61 -37 131 -37q98 0 147 84t49 266q0 176 -40.5 253t-122.5 77 q-46 0 -92.5 -31.5t-71.5 -66.5v-545z" />
<glyph unicode="&#xff;" horiz-adv-x="940" d="M14 1053h289q129 -522 172 -758q23 121 84 385t90 373h279l-346 -1112q-24 -76 -58 -138.5t-66 -102t-72 -72.5t-68 -49.5t-60 -34.5q-7 -3 -10 -5q-6 7 -123 168q1 1 40 29t67.5 53.5t63.5 77.5t50 110zM135 1376q0 68 40 112t99 44t97.5 -43.5t38.5 -112.5 q0 -68 -38.5 -111.5t-97.5 -43.5t-99 43.5t-40 111.5zM526 1376q0 68 39.5 112t98.5 44t99 -44t40 -112t-40 -111.5t-99 -43.5t-98.5 43.5t-39.5 111.5z" />
<glyph unicode="&#x152;" horiz-adv-x="1607" d="M68 674q0 352 131 525t383 173q141 0 225 -112v88h729v-232h-442v-311h336v-217h-336v-357h442v-231h-729v86q-85 -113 -225 -113q-251 0 -382.5 174t-131.5 527zM360 674q0 -473 222 -473q221 0 221 473q0 471 -221 471q-222 0 -222 -471z" />
<glyph unicode="&#x153;" horiz-adv-x="1523" d="M57 526q0 549 451 549q202 0 299 -149q101 149 262 149q184 0 290.5 -120.5t106.5 -368.5q0 -84 -12 -144h-534q1 -130 58 -194t150 -64q20 0 41 2.5t37.5 5.5t37.5 9t32.5 10t32 12.5t27 11.5t25 11.5t19.5 9.5l56 -180q-157 -101 -361 -101q-175 0 -274 140 q-99 -140 -293 -140q-451 0 -451 551zM342 526q0 -184 39.5 -266t126.5 -82t126.5 82t39.5 266q0 183 -39.5 264.5t-126.5 81.5t-126.5 -81.5t-39.5 -264.5zM920 614h280q0 147 -35 206t-98 59q-61 0 -103.5 -63.5t-43.5 -201.5z" />
<glyph unicode="&#x178;" horiz-adv-x="1081" d="M-4 1348h305q188 -500 240 -648q66 189 239 648h305q-54 -119 -176.5 -396.5t-189.5 -425.5l-35 -82v-444h-285v444l-37 82q-67 148 -189.5 425.5t-176.5 396.5zM207 1671q0 68 40 112t99 44t97 -43.5t38 -112.5t-38 -112t-97 -43t-99 43.5t-40 111.5zM598 1671 q0 68 39 112t98 44t99 -44t40 -112t-40 -111.5t-99 -43.5t-98 43.5t-39 111.5z" />
<glyph unicode="&#x2c6;" horiz-adv-x="827" d="M96 1374l244 232h133l258 -230l-100 -145l-217 158l-219 -158z" />
<glyph unicode="&#x2dc;" horiz-adv-x="882" d="M63 1339l30 40t41.5 51.5t46 45t62.5 38t72 12.5q50 0 97.5 -21.5t89.5 -43t78 -21.5q30 0 62 16t47.5 29.5t25.5 25.5l104 -81q-7 -9 -29 -41t-39.5 -52.5t-44.5 -46t-61 -38.5t-72 -13q-48 0 -95.5 20.5t-90 41t-78.5 20.5q-43 0 -84 -25.5t-59 -48.5z" />
<glyph unicode="&#x2000;" horiz-adv-x="990" />
<glyph unicode="&#x2001;" horiz-adv-x="1980" />
<glyph unicode="&#x2002;" horiz-adv-x="990" />
<glyph unicode="&#x2003;" horiz-adv-x="1980" />
<glyph unicode="&#x2004;" horiz-adv-x="660" />
<glyph unicode="&#x2005;" horiz-adv-x="495" />
<glyph unicode="&#x2006;" horiz-adv-x="330" />
<glyph unicode="&#x2007;" horiz-adv-x="330" />
<glyph unicode="&#x2008;" horiz-adv-x="247" />
<glyph unicode="&#x2009;" horiz-adv-x="396" />
<glyph unicode="&#x200a;" horiz-adv-x="110" />
<glyph unicode="&#x2010;" horiz-adv-x="653" d="M74 463v221h506v-221h-506z" />
<glyph unicode="&#x2011;" horiz-adv-x="653" d="M74 463v221h506v-221h-506z" />
<glyph unicode="&#x2012;" horiz-adv-x="653" d="M74 463v221h506v-221h-506z" />
<glyph unicode="&#x2013;" horiz-adv-x="925" d="M49 494v229h825v-229h-825z" />
<glyph unicode="&#x2014;" horiz-adv-x="1558" d="M84 496v225h1389v-225h-1389z" />
<glyph unicode="&#x2018;" horiz-adv-x="421" d="M82 1118q0 164 184 428q15 -7 53 -27t60 -30q-90 -165 -90 -272q2 -18 22.5 -64.5t22.5 -79.5q0 -33 -36.5 -61.5t-84.5 -28.5q-57 0 -94 36t-37 99z" />
<glyph unicode="&#x2019;" horiz-adv-x="421" d="M41 1038q38 70 64 145t26 128q-1 19 -22 65t-21 78q0 33 36.5 61.5t84.5 28.5q129 0 129 -164q-9 -148 -182 -399z" />
<glyph unicode="&#x201a;" horiz-adv-x="421" d="M41 -248q90 169 90 273q-1 19 -22 65t-21 78q0 33 36.5 61.5t84.5 28.5q129 0 129 -164q-9 -144 -182 -397z" />
<glyph unicode="&#x201c;" horiz-adv-x="774" d="M82 1118q0 164 184 428l113 -57q-88 -168 -88 -272q2 -19 21 -65t22 -79q0 -33 -36.5 -61.5t-84.5 -28.5q-57 0 -94 36t-37 99zM430 1118q0 162 184 428q22 -10 60 -30t53 -27q-88 -168 -88 -272q2 -20 22 -66.5t23 -77.5q0 -33 -37.5 -61.5t-85.5 -28.5q-57 0 -94 36 t-37 99z" />
<glyph unicode="&#x201d;" horiz-adv-x="774" d="M41 1038q38 70 64 145t26 128q-1 19 -22 65t-21 78q0 33 36.5 61.5t84.5 28.5q129 0 129 -164q-9 -148 -182 -399zM391 1038q78 140 78 211q0 22 -9 71t-9 79v10q0 57 32 96t74 39q67 0 99 -40t32 -124q-10 -156 -184 -399q-18 10 -56.5 28.5t-56.5 28.5z" />
<glyph unicode="&#x201e;" horiz-adv-x="774" d="M41 -248q90 169 90 273q-1 19 -22 65t-21 78q0 33 36.5 61.5t84.5 28.5q129 0 129 -164q-9 -144 -182 -397zM391 -248q78 147 78 213q0 22 -9 70t-9 78v10q0 57 32 96t74 39q67 0 99 -40t32 -124q-10 -153 -184 -397z" />
<glyph unicode="&#x2022;" horiz-adv-x="794" d="M125 725q0 133 79 220t195 87t195.5 -87.5t79.5 -219.5t-79 -217.5t-196 -85.5t-195.5 85.5t-78.5 217.5z" />
<glyph unicode="&#x2026;" horiz-adv-x="1499" d="M102 152q0 75 44.5 123.5t109.5 48.5t108.5 -48t43.5 -124t-43.5 -124t-108.5 -48t-109.5 48.5t-44.5 123.5zM596 152q0 75 44.5 123.5t109.5 48.5t108 -48t43 -124t-43 -124t-108 -48t-109.5 48.5t-44.5 123.5zM1090 152q0 76 44 124t109 48t109.5 -48.5t44.5 -123.5 t-44.5 -123.5t-109.5 -48.5t-109 48t-44 124z" />
<glyph unicode="&#x202f;" horiz-adv-x="396" />
<glyph unicode="&#x2039;" horiz-adv-x="604" d="M86 549q119 153 311 391l127 -111l-205 -278q56 -77 205 -279q-103 -99 -127 -120q-98 123 -311 397z" />
<glyph unicode="&#x203a;" horiz-adv-x="604" d="M76 821l129 119l311 -395l-311 -393l-127 110l203 281z" />
<glyph unicode="&#x205f;" horiz-adv-x="495" />
<glyph unicode="&#x20ac;" horiz-adv-x="1110" d="M57 461q3 30 17 143h90v141h-107l17 144h104q76 485 535 485q40 0 82.5 -4t75.5 -10t68 -14t55 -14t43 -13t26 -8q-22 -114 -39 -215q-39 16 -118 33.5t-144 17.5q-127 0 -195 -63.5t-92 -194.5h356l-14 -144h-356v-141h346l-14 -143h-318q24 -136 91.5 -200t195.5 -64 q65 0 144 17.5t118 33.5q17 -101 39 -215l-31 -10q-32 -10 -60 -17t-71 -16.5t-91.5 -15t-96.5 -5.5q-462 0 -535 492h-121z" />
<glyph unicode="&#x2122;" horiz-adv-x="1538" d="M80 1348v165h569v-165h-194v-664h-189v664h-186zM662 684q6 54 42.5 358t55.5 471h188q88 -342 125 -481q122 419 139 481h185q42 -400 84 -829h-187l-43 498v-2l-121 -418h-126q-18 73 -57 221t-58 221q-6 -93 -15 -193.5t-18 -194.5t-12 -132h-182z" />
<glyph unicode="&#xe000;" horiz-adv-x="1054" d="M0 0v1055h1055v-1055h-1055z" />
</font>
</defs>
</svg>
